<svg width="114" height="40" viewBox="0 0 114 40" fill="none" xmlns="http://www.w3.org/2000/svg">
<path d="M35.3485 27.4227C37.2553 27.2556 38.7328 26.5702 39.7811 25.3666C40.8294 24.1629 41.3467 22.5337 41.3328 20.4789C41.3234 19.0827 41.0789 17.9049 40.5995 16.9456C40.1357 15.9862 39.4922 15.2516 38.6689 14.7418C37.8456 14.2451 36.9137 13.9993 35.873 14.0042C35.0057 13.982 34.2499 14.137 33.6056 14.4694C32.9615 14.8149 32.4049 15.2852 31.9359 15.8801C31.4827 16.475 31.0852 17.1619 30.7436 17.9407C30.4177 18.7194 30.1395 19.5505 29.9089 20.4342L28.8928 24.0745C28.4317 25.8418 27.8119 27.4649 27.0335 28.9439C26.2551 30.4229 25.2941 31.7052 24.1504 32.7907C23.0066 33.8763 21.6563 34.7191 20.0994 35.3192C18.5425 35.9325 16.7551 36.2505 14.737 36.2732C11.7727 36.2741 9.1984 35.654 7.01412 34.413C4.8457 33.1851 3.15444 31.4016 1.94035 29.0627C0.742113 26.7369 0.131895 23.9275 0.109705 20.6345C0.087692 17.3679 0.667668 14.5199 1.84963 12.0906C3.03168 9.67451 4.79278 7.78254 7.13292 6.41471C9.48892 5.05998 12.4089 4.34144 15.893 4.25908L15.9488 12.5376C14.3254 12.6375 12.9721 13.0325 11.8888 13.7226C10.8213 14.4258 10.0156 15.3582 9.47153 16.52C8.94335 17.6948 8.68423 19.0198 8.69417 20.4951C8.70394 21.944 8.96469 23.2007 9.47642 24.2653C9.98824 25.343 10.6955 26.1761 11.5982 26.7645C12.5009 27.353 13.5357 27.6445 14.7024 27.639C15.7904 27.6338 16.703 27.3595 17.4404 26.8159C18.1779 26.2855 18.8034 25.5054 19.3168 24.4755C19.8302 23.4588 20.2949 22.2119 20.7106 20.7346L22.0054 16.3223C22.9757 12.9061 24.5106 10.2051 26.6101 8.21931C28.7095 6.23353 31.5489 5.23875 35.1281 5.23498C38.0606 5.20792 40.6272 5.8478 42.8276 7.15461C45.0282 8.47459 46.7512 10.2908 47.9967 12.6032C49.2421 14.9157 49.8748 17.5471 49.8947 20.4976C49.9149 23.5008 49.3177 26.1249 48.1029 28.37C46.8883 30.6282 45.1894 32.3881 43.0062 33.6499C40.823 34.9116 38.2889 35.569 35.4038 35.6222L35.3485 27.4227Z" fill="url(#paint0_linear_5594_657)"/>
<path d="M21.8887 8.71445L13.6593 15.6156L13.6593 1.8292L21.8887 8.71445Z" fill="url(#paint1_linear_5594_657)"/>
<path d="M29.5049 31.2846L37.7343 24.3835V38.1698L29.5049 31.2846Z" fill="url(#paint2_linear_5594_657)"/>
<path d="M68.8047 16.1953C68.6641 14.7422 67.4219 13.8984 65.5938 13.8984C63.6719 13.8984 62.5 14.8359 62.5 16.1016C62.5 17.5312 64 18.1172 65.4062 18.4453L67 18.8672C69.5312 19.4531 71.9688 20.7891 71.9688 23.7422C71.9688 26.7188 69.625 28.7578 65.5469 28.7578C61.5859 28.7578 59.1016 26.8594 58.9609 23.5078H61.9609C62.1016 25.2891 63.6016 26.1562 65.5234 26.1562C67.5391 26.1562 68.9219 25.1719 68.9219 23.7188C68.9219 22.3828 67.6797 21.8203 65.8516 21.3516L63.9297 20.8594C61.1406 20.1328 59.4062 18.7266 59.4062 16.2891C59.4062 13.2891 62.0781 11.2969 65.6406 11.2969C69.25 11.2969 71.6875 13.3359 71.7344 16.1953H68.8047ZM76.1641 33.2812C75.5781 33.2812 74.9922 33.2578 74.6172 33.2109V30.8203C74.9922 30.8438 75.4844 30.8672 75.8828 30.8672C76.6094 30.8672 77.2188 30.7969 77.7344 29.4375L77.9922 28.7578L73.3516 15.7734H76.5156L79.4688 25.3828H79.6094L82.5625 15.7734H85.7266L80.6172 30.0469C79.8906 32.0859 78.5547 33.2812 76.1641 33.2812ZM90.6016 21.0469V28.5H87.6016V15.7734H90.4609V17.9297H90.625C91.2109 16.5 92.5 15.6094 94.3984 15.6094C97.0469 15.6094 98.7812 17.3438 98.7578 20.3906V28.5H95.7812V20.8594C95.7812 19.1484 94.8672 18.1406 93.2969 18.1406C91.7031 18.1406 90.6016 19.1953 90.6016 21.0469ZM107.172 28.7578C103.375 28.7578 101.078 26.0391 101.078 22.1953C101.078 18.3047 103.445 15.6094 107.172 15.6094C110.266 15.6094 112.422 17.4141 112.633 20.1562H109.773C109.539 18.9375 108.648 18 107.195 18C105.344 18 104.102 19.5703 104.102 22.125C104.102 24.75 105.32 26.3203 107.195 26.3203C108.531 26.3203 109.516 25.5469 109.773 24.1641H112.633C112.398 26.8594 110.359 28.7578 107.172 28.7578Z" fill="url(#paint3_linear_5594_657)"/>
<defs>
<linearGradient id="paint0_linear_5594_657" x1="0.107711" y1="20.3382" x2="49.8914" y2="20.0027" gradientUnits="userSpaceOnUse">
<stop offset="0.15" stop-color="#4E3EB1"/>
<stop offset="1" stop-color="#7765EA"/>
</linearGradient>
<linearGradient id="paint1_linear_5594_657" x1="10.9161" y1="8.72503" x2="21.8887" y2="8.72503" gradientUnits="userSpaceOnUse">
<stop offset="0.15" stop-color="#4E3EB1"/>
<stop offset="1" stop-color="#7765EA"/>
</linearGradient>
<linearGradient id="paint2_linear_5594_657" x1="26.9568" y1="31.361" x2="37.4174" y2="31.3711" gradientUnits="userSpaceOnUse">
<stop offset="0.15" stop-color="#4E3EB1"/>
<stop offset="1" stop-color="#6B5AD9"/>
</linearGradient>
<linearGradient id="paint3_linear_5594_657" x1="58" y1="20.5" x2="114" y2="20.5" gradientUnits="userSpaceOnUse">
<stop stop-color="#3E328C"/>
<stop offset="1" stop-color="#6556C2"/>
</linearGradient>
</defs>
</svg>
