<svg width="197" height="148" viewBox="0 0 197 148" fill="none" xmlns="http://www.w3.org/2000/svg">
<g filter="url(#filter0_d_1312_908)">
<path d="M133.79 99.4236C140.899 98.8007 146.407 96.2454 150.316 91.7579C154.224 87.2704 156.153 81.1961 156.101 73.5352C156.066 68.3297 155.155 63.9386 153.367 60.3621C151.638 56.7852 149.239 54.0464 146.169 52.1456C143.1 50.294 139.625 49.3773 135.745 49.3957C132.512 49.3128 129.694 49.8909 127.292 51.13C124.89 52.4183 122.815 54.1715 121.067 56.3897C119.377 58.6077 117.895 61.1684 116.621 64.072C115.406 66.9752 114.369 70.0741 113.51 73.3685L109.721 86.9408C108.002 93.5297 105.691 99.5812 102.789 105.095C99.8872 110.609 96.304 115.39 92.04 119.437C87.7759 123.484 82.7415 126.627 76.9367 128.864C71.1324 131.151 64.4682 132.336 56.9442 132.421C45.8924 132.424 36.2948 130.112 28.1512 125.486C20.0666 120.908 13.7612 114.258 9.23467 105.538C4.7673 96.8669 2.49225 86.3926 2.40952 74.1155C2.32745 61.9366 4.48976 51.3185 8.89646 42.2614C13.3035 33.2534 19.8694 26.1996 28.5941 21.0999C37.3779 16.0491 48.2646 13.3702 61.2542 13.0631L61.4622 43.9278C55.4098 44.3003 50.3641 45.7729 46.3252 48.3457C42.3455 50.9674 39.3414 54.4439 37.3131 58.7752C35.3439 63.1553 34.3778 68.0955 34.4149 73.5956C34.4513 78.9976 35.4234 83.683 37.3313 87.6519C39.2395 91.6699 41.8764 94.7759 45.242 96.9699C48.6076 99.1639 52.4654 100.251 56.8154 100.23C60.8715 100.211 64.2742 99.188 67.0234 97.1615C69.773 95.184 72.1049 92.2755 74.0189 88.4358C75.9333 84.6453 77.6656 79.9962 79.2157 74.4885L84.0428 58.0383C87.6605 45.3017 93.3831 35.2316 101.21 27.828C109.038 20.4244 119.624 16.7156 132.968 16.7015C143.901 16.6006 153.47 18.9863 161.674 23.8585C169.879 28.7797 176.303 35.5511 180.946 44.1725C185.589 52.7939 187.948 62.6048 188.022 73.6051C188.098 84.8018 185.871 94.5853 181.342 102.955C176.814 111.375 170.479 117.936 162.34 122.64C154.2 127.344 144.752 129.795 133.996 129.994L133.79 99.4236Z" fill="url(#paint0_linear_1312_908)"/>
<path d="M83.6049 29.6755L52.9233 55.4049L52.9233 4.00536L83.6049 29.6755Z" fill="url(#paint1_linear_1312_908)"/>
<path d="M112 113.824L142.682 88.0951V139.495L112 113.824Z" fill="url(#paint2_linear_1312_908)"/>
</g>
<defs>
<filter id="filter0_d_1312_908" x="0.407288" y="2.00537" width="195.617" height="145.489" filterUnits="userSpaceOnUse" color-interpolation-filters="sRGB">
<feFlood flood-opacity="0" result="BackgroundImageFix"/>
<feColorMatrix in="SourceAlpha" type="matrix" values="0 0 0 0 0 0 0 0 0 0 0 0 0 0 0 0 0 0 127 0" result="hardAlpha"/>
<feOffset dx="3" dy="3"/>
<feGaussianBlur stdDeviation="2.5"/>
<feComposite in2="hardAlpha" operator="out"/>
<feColorMatrix type="matrix" values="0 0 0 0 0 0 0 0 0 0 0 0 0 0 0 0 0 0 0.25 0"/>
<feBlend mode="normal" in2="BackgroundImageFix" result="effect1_dropShadow_1312_908"/>
<feBlend mode="normal" in="SourceGraphic" in2="effect1_dropShadow_1312_908" result="shape"/>
</filter>
<linearGradient id="paint0_linear_1312_908" x1="2.40208" y1="73.0105" x2="188.01" y2="71.7598" gradientUnits="userSpaceOnUse">
<stop offset="0.15" stop-color="#4E3EB1"/>
<stop offset="1" stop-color="#7765EA"/>
</linearGradient>
<linearGradient id="paint1_linear_1312_908" x1="42.6961" y1="29.715" x2="83.6049" y2="29.715" gradientUnits="userSpaceOnUse">
<stop offset="0.15" stop-color="#4E3EB1"/>
<stop offset="1" stop-color="#7765EA"/>
</linearGradient>
<linearGradient id="paint2_linear_1312_908" x1="102.5" y1="114.109" x2="141.5" y2="114.147" gradientUnits="userSpaceOnUse">
<stop offset="0.15" stop-color="#4E3EB1"/>
<stop offset="1" stop-color="#6B5AD9"/>
</linearGradient>
</defs>
</svg>
